<svg width="165" height="44" viewBox="0 0 165 44" fill="none" xmlns="http://www.w3.org/2000/svg">
<g filter="url(#filter0_d_0_22)">
<path d="M3.75937 24C3.58337 24 3.43937 23.944 3.32737 23.832C3.21537 23.72 3.15937 23.576 3.15937 23.4V7.8C3.15937 7.624 3.21537 7.48 3.32737 7.368C3.43937 7.256 3.58337 7.2 3.75937 7.2H9.99937C11.5674 7.2 12.9034 7.456 14.0074 7.968C15.1114 8.464 15.9594 9.2 16.5514 10.176C17.1434 11.136 17.4634 12.328 17.5114 13.752C17.5274 14.456 17.5354 15.072 17.5354 15.6C17.5354 16.128 17.5274 16.736 17.5114 17.424C17.4474 18.912 17.1274 20.144 16.5514 21.12C15.9914 22.096 15.1674 22.824 14.0794 23.304C13.0074 23.768 11.6874 24 10.1194 24H3.75937ZM7.45537 20.544H9.99937C10.6874 20.544 11.2554 20.44 11.7034 20.232C12.1674 20.008 12.5114 19.664 12.7354 19.2C12.9754 18.736 13.1034 18.128 13.1194 17.376C13.1514 16.912 13.1674 16.496 13.1674 16.128C13.1834 15.76 13.1834 15.392 13.1674 15.024C13.1674 14.656 13.1514 14.248 13.1194 13.8C13.0874 12.712 12.7994 11.92 12.2554 11.424C11.7274 10.912 10.9354 10.656 9.87937 10.656H7.45537V20.544ZM20.7398 24C20.5638 24 20.4198 23.944 20.3078 23.832C20.1958 23.72 20.1398 23.576 20.1398 23.4V12.12C20.1398 11.96 20.1958 11.824 20.3078 11.712C20.4198 11.584 20.5638 11.52 20.7398 11.52H23.4998C23.6758 11.52 23.8198 11.584 23.9318 11.712C24.0438 11.824 24.0998 11.96 24.0998 12.12V13.08C24.5318 12.584 25.0438 12.2 25.6358 11.928C26.2438 11.656 26.9238 11.52 27.6758 11.52H28.7318C28.8918 11.52 29.0278 11.576 29.1398 11.688C29.2678 11.8 29.3318 11.944 29.3318 12.12V14.592C29.3318 14.752 29.2678 14.896 29.1398 15.024C29.0278 15.136 28.8918 15.192 28.7318 15.192H26.4038C25.7478 15.192 25.2358 15.376 24.8678 15.744C24.5158 16.096 24.3398 16.6 24.3398 17.256V23.4C24.3398 23.576 24.2758 23.72 24.1478 23.832C24.0358 23.944 23.8918 24 23.7158 24H20.7398ZM36.7692 24.24C34.8812 24.24 33.3772 23.728 32.2572 22.704C31.1372 21.68 30.5532 20.16 30.5052 18.144C30.5052 18.032 30.5052 17.888 30.5052 17.712C30.5052 17.536 30.5052 17.4 30.5052 17.304C30.5532 16.04 30.8332 14.96 31.3452 14.064C31.8732 13.152 32.5932 12.464 33.5052 12C34.4332 11.52 35.5132 11.28 36.7452 11.28C38.1532 11.28 39.3132 11.56 40.2252 12.12C41.1532 12.68 41.8492 13.44 42.3132 14.4C42.7772 15.36 43.0092 16.456 43.0092 17.688V18.264C43.0092 18.44 42.9452 18.584 42.8172 18.696C42.7052 18.808 42.5692 18.864 42.4092 18.864H34.7292C34.7292 18.88 34.7292 18.904 34.7292 18.936C34.7292 18.968 34.7292 19 34.7292 19.032C34.7452 19.496 34.8252 19.92 34.9692 20.304C35.1132 20.688 35.3372 20.992 35.6412 21.216C35.9452 21.44 36.3132 21.552 36.7452 21.552C37.0652 21.552 37.3292 21.504 37.5372 21.408C37.7612 21.296 37.9452 21.176 38.0892 21.048C38.2332 20.904 38.3452 20.784 38.4252 20.688C38.5692 20.528 38.6812 20.432 38.7612 20.4C38.8572 20.352 39.0012 20.328 39.1932 20.328H42.1692C42.3292 20.328 42.4572 20.376 42.5532 20.472C42.6652 20.552 42.7132 20.672 42.6972 20.832C42.6812 21.104 42.5452 21.432 42.2892 21.816C42.0332 22.2 41.6572 22.584 41.1612 22.968C40.6812 23.336 40.0732 23.64 39.3372 23.88C38.6012 24.12 37.7452 24.24 36.7692 24.24ZM34.7292 16.488H38.7852V16.44C38.7852 15.928 38.7052 15.48 38.5452 15.096C38.4012 14.712 38.1692 14.416 37.8492 14.208C37.5452 14 37.1772 13.896 36.7452 13.896C36.3132 13.896 35.9452 14 35.6412 14.208C35.3532 14.416 35.1292 14.712 34.9692 15.096C34.8092 15.48 34.7292 15.928 34.7292 16.44V16.488ZM49.0679 24.24C48.2039 24.24 47.4279 24.08 46.7399 23.76C46.0679 23.424 45.5319 22.976 45.1319 22.416C44.7319 21.856 44.5319 21.224 44.5319 20.52C44.5319 19.384 44.9959 18.488 45.9239 17.832C46.8519 17.16 48.0839 16.704 49.6199 16.464L52.6199 16.008V15.672C52.6199 15.096 52.4999 14.656 52.2599 14.352C52.0199 14.048 51.5799 13.896 50.9399 13.896C50.4919 13.896 50.1239 13.984 49.8359 14.16C49.5639 14.336 49.3479 14.576 49.1879 14.88C49.0439 15.088 48.8439 15.192 48.5879 15.192H45.8999C45.7239 15.192 45.5879 15.144 45.4919 15.048C45.3959 14.936 45.3559 14.808 45.3719 14.664C45.3719 14.376 45.4759 14.048 45.6839 13.68C45.9079 13.296 46.2439 12.92 46.6919 12.552C47.1399 12.184 47.7159 11.88 48.4199 11.64C49.1239 11.4 49.9719 11.28 50.9639 11.28C52.0039 11.28 52.8919 11.4 53.6279 11.64C54.3639 11.88 54.9559 12.216 55.4039 12.648C55.8679 13.08 56.2119 13.592 56.4359 14.184C56.6599 14.76 56.7719 15.4 56.7719 16.104V23.4C56.7719 23.576 56.7079 23.72 56.5799 23.832C56.4679 23.944 56.3319 24 56.1719 24H53.3879C53.2119 24 53.0679 23.944 52.9559 23.832C52.8439 23.72 52.7879 23.576 52.7879 23.4V22.56C52.5799 22.864 52.2999 23.144 51.9479 23.4C51.5959 23.656 51.1799 23.856 50.6999 24C50.2359 24.16 49.6919 24.24 49.0679 24.24ZM50.1959 21.504C50.6599 21.504 51.0759 21.408 51.4439 21.216C51.8279 21.008 52.1239 20.696 52.3319 20.28C52.5559 19.848 52.6679 19.312 52.6679 18.672V18.336L50.6279 18.696C49.8759 18.824 49.3239 19.024 48.9719 19.296C48.6359 19.552 48.4679 19.856 48.4679 20.208C48.4679 20.48 48.5479 20.712 48.7079 20.904C48.8679 21.096 49.0759 21.248 49.3319 21.36C49.5879 21.456 49.8759 21.504 50.1959 21.504ZM60.1449 24C59.9689 24 59.8249 23.944 59.7129 23.832C59.6009 23.72 59.5449 23.576 59.5449 23.4V12.12C59.5449 11.944 59.6009 11.8 59.7129 11.688C59.8249 11.576 59.9689 11.52 60.1449 11.52H62.7609C62.9369 11.52 63.0809 11.576 63.1929 11.688C63.3049 11.8 63.3609 11.944 63.3609 12.12V12.936C63.6809 12.504 64.1289 12.128 64.7049 11.808C65.2809 11.472 65.9609 11.296 66.7449 11.28C68.5849 11.248 69.8489 11.944 70.5369 13.368C70.9049 12.76 71.4329 12.264 72.1209 11.88C72.8089 11.48 73.5609 11.28 74.3769 11.28C75.2089 11.28 75.9529 11.472 76.6089 11.856C77.2809 12.224 77.8169 12.8 78.2169 13.584C78.6169 14.352 78.8169 15.352 78.8169 16.584V23.4C78.8169 23.576 78.7529 23.72 78.6249 23.832C78.5129 23.944 78.3769 24 78.2169 24H75.4329C75.2569 24 75.1049 23.944 74.9769 23.832C74.8649 23.72 74.8089 23.576 74.8089 23.4V16.752C74.8089 16.192 74.7289 15.752 74.5689 15.432C74.4089 15.096 74.1929 14.856 73.9209 14.712C73.6489 14.568 73.3369 14.496 72.9849 14.496C72.6969 14.496 72.4089 14.568 72.1209 14.712C71.8489 14.856 71.6249 15.096 71.4489 15.432C71.2889 15.752 71.2089 16.192 71.2089 16.752V23.4C71.2089 23.576 71.1529 23.72 71.0409 23.832C70.9289 23.944 70.7849 24 70.6089 24H67.8249C67.6489 24 67.5049 23.944 67.3929 23.832C67.2809 23.72 67.2249 23.576 67.2249 23.4V16.752C67.2249 16.192 67.1369 15.752 66.9609 15.432C66.7849 15.096 66.5609 14.856 66.2889 14.712C66.0169 14.568 65.7129 14.496 65.3769 14.496C65.0889 14.496 64.8009 14.568 64.5129 14.712C64.2409 14.856 64.0169 15.096 63.8409 15.432C63.6809 15.752 63.6009 16.184 63.6009 16.728V23.4C63.6009 23.576 63.5369 23.72 63.4089 23.832C63.2969 23.944 63.1529 24 62.9769 24H60.1449ZM88.7226 24.24C87.2026 24.24 85.8986 23.992 84.8106 23.496C83.7386 23 82.8986 22.272 82.2906 21.312C81.6986 20.352 81.3706 19.16 81.3066 17.736C81.2906 17.08 81.2826 16.376 81.2826 15.624C81.2826 14.872 81.2906 14.152 81.3066 13.464C81.3706 12.072 81.7066 10.896 82.3146 9.936C82.9226 8.96 83.7706 8.224 84.8586 7.728C85.9466 7.216 87.2346 6.96 88.7226 6.96C89.7786 6.96 90.7546 7.096 91.6506 7.368C92.5466 7.624 93.3306 8.008 94.0026 8.52C94.6746 9.016 95.1946 9.624 95.5626 10.344C95.9466 11.048 96.1466 11.848 96.1626 12.744C96.1786 12.888 96.1306 13.008 96.0186 13.104C95.9226 13.2 95.8026 13.248 95.6586 13.248H92.4186C92.2106 13.248 92.0506 13.208 91.9386 13.128C91.8266 13.032 91.7306 12.864 91.6506 12.624C91.4266 11.776 91.0586 11.2 90.5466 10.896C90.0506 10.576 89.4346 10.416 88.6986 10.416C87.8186 10.416 87.1226 10.664 86.6106 11.16C86.0986 11.64 85.8186 12.448 85.7706 13.584C85.7226 14.896 85.7226 16.24 85.7706 17.616C85.8186 18.752 86.0986 19.568 86.6106 20.064C87.1226 20.544 87.8186 20.784 88.6986 20.784C89.4346 20.784 90.0586 20.624 90.5706 20.304C91.0826 19.984 91.4426 19.408 91.6506 18.576C91.7146 18.336 91.8026 18.176 91.9146 18.096C92.0426 18 92.2106 17.952 92.4186 17.952H95.6586C95.8026 17.952 95.9226 18 96.0186 18.096C96.1306 18.192 96.1786 18.312 96.1626 18.456C96.1466 19.352 95.9466 20.16 95.5626 20.88C95.1946 21.584 94.6746 22.192 94.0026 22.704C93.3306 23.2 92.5466 23.584 91.6506 23.856C90.7546 24.112 89.7786 24.24 88.7226 24.24ZM102.231 24.24C101.367 24.24 100.591 24.08 99.9029 23.76C99.2309 23.424 98.6949 22.976 98.2949 22.416C97.8949 21.856 97.6949 21.224 97.6949 20.52C97.6949 19.384 98.1589 18.488 99.0869 17.832C100.015 17.16 101.247 16.704 102.783 16.464L105.783 16.008V15.672C105.783 15.096 105.663 14.656 105.423 14.352C105.183 14.048 104.743 13.896 104.103 13.896C103.655 13.896 103.287 13.984 102.999 14.16C102.727 14.336 102.511 14.576 102.351 14.88C102.207 15.088 102.007 15.192 101.751 15.192H99.0629C98.8869 15.192 98.7509 15.144 98.6549 15.048C98.5589 14.936 98.5189 14.808 98.5349 14.664C98.5349 14.376 98.6389 14.048 98.8469 13.68C99.0709 13.296 99.4069 12.92 99.8549 12.552C100.303 12.184 100.879 11.88 101.583 11.64C102.287 11.4 103.135 11.28 104.127 11.28C105.167 11.28 106.055 11.4 106.791 11.64C107.527 11.88 108.119 12.216 108.567 12.648C109.031 13.08 109.375 13.592 109.599 14.184C109.823 14.76 109.935 15.4 109.935 16.104V23.4C109.935 23.576 109.871 23.72 109.743 23.832C109.631 23.944 109.495 24 109.335 24H106.551C106.375 24 106.231 23.944 106.119 23.832C106.007 23.72 105.951 23.576 105.951 23.4V22.56C105.743 22.864 105.463 23.144 105.111 23.4C104.759 23.656 104.343 23.856 103.863 24C103.399 24.16 102.855 24.24 102.231 24.24ZM103.359 21.504C103.823 21.504 104.239 21.408 104.607 21.216C104.991 21.008 105.287 20.696 105.495 20.28C105.719 19.848 105.831 19.312 105.831 18.672V18.336L103.791 18.696C103.039 18.824 102.487 19.024 102.135 19.296C101.799 19.552 101.631 19.856 101.631 20.208C101.631 20.48 101.711 20.712 101.871 20.904C102.031 21.096 102.239 21.248 102.495 21.36C102.751 21.456 103.039 21.504 103.359 21.504ZM113.308 24C113.132 24 112.988 23.944 112.876 23.832C112.764 23.72 112.708 23.576 112.708 23.4V12.12C112.708 11.96 112.764 11.824 112.876 11.712C112.988 11.584 113.132 11.52 113.308 11.52H116.068C116.244 11.52 116.388 11.584 116.5 11.712C116.612 11.824 116.668 11.96 116.668 12.12V13.08C117.1 12.584 117.612 12.2 118.204 11.928C118.812 11.656 119.492 11.52 120.244 11.52H121.3C121.46 11.52 121.596 11.576 121.708 11.688C121.836 11.8 121.9 11.944 121.9 12.12V14.592C121.9 14.752 121.836 14.896 121.708 15.024C121.596 15.136 121.46 15.192 121.3 15.192H118.972C118.316 15.192 117.804 15.376 117.436 15.744C117.084 16.096 116.908 16.6 116.908 17.256V23.4C116.908 23.576 116.844 23.72 116.716 23.832C116.604 23.944 116.46 24 116.284 24H113.308ZM128.807 24.24C127.767 24.24 126.879 24.128 126.143 23.904C125.423 23.664 124.831 23.376 124.367 23.04C123.919 22.704 123.583 22.36 123.359 22.008C123.135 21.64 123.015 21.328 122.999 21.072C122.983 20.896 123.039 20.752 123.167 20.64C123.295 20.512 123.431 20.448 123.575 20.448H126.311C126.359 20.448 126.399 20.456 126.431 20.472C126.463 20.488 126.511 20.52 126.575 20.568C126.783 20.68 126.991 20.824 127.199 21C127.407 21.16 127.647 21.304 127.919 21.432C128.191 21.56 128.519 21.624 128.903 21.624C129.351 21.624 129.727 21.536 130.031 21.36C130.335 21.184 130.487 20.92 130.487 20.568C130.487 20.312 130.415 20.104 130.271 19.944C130.127 19.768 129.831 19.6 129.383 19.44C128.951 19.28 128.295 19.12 127.415 18.96C126.583 18.768 125.855 18.52 125.231 18.216C124.607 17.896 124.127 17.488 123.791 16.992C123.455 16.48 123.287 15.864 123.287 15.144C123.287 14.504 123.495 13.888 123.911 13.296C124.327 12.704 124.935 12.224 125.735 11.856C126.535 11.472 127.519 11.28 128.687 11.28C129.615 11.28 130.415 11.392 131.087 11.616C131.775 11.824 132.351 12.096 132.815 12.432C133.295 12.768 133.655 13.112 133.895 13.464C134.135 13.816 134.263 14.136 134.279 14.424C134.295 14.584 134.247 14.728 134.135 14.856C134.023 14.968 133.895 15.024 133.751 15.024H131.255C131.191 15.024 131.127 15.016 131.063 15C130.999 14.968 130.943 14.936 130.895 14.904C130.703 14.808 130.511 14.68 130.319 14.52C130.127 14.36 129.903 14.216 129.647 14.088C129.391 13.96 129.071 13.896 128.687 13.896C128.255 13.896 127.919 13.992 127.679 14.184C127.439 14.376 127.319 14.624 127.319 14.928C127.319 15.136 127.383 15.328 127.511 15.504C127.655 15.68 127.935 15.84 128.351 15.984C128.783 16.128 129.447 16.288 130.343 16.464C131.447 16.64 132.327 16.928 132.983 17.328C133.639 17.712 134.103 18.168 134.375 18.696C134.647 19.208 134.783 19.752 134.783 20.328C134.783 21.096 134.551 21.776 134.087 22.368C133.639 22.96 132.967 23.424 132.071 23.76C131.175 24.08 130.087 24.24 128.807 24.24Z" fill="white"/>
</g>
<defs>
<filter id="filter0_d_0_22" x="-26.8406" y="-13.04" width="191.624" height="77.28" filterUnits="userSpaceOnUse" color-interpolation-filters="sRGB">
<feFlood flood-opacity="0" result="BackgroundImageFix"/>
<feColorMatrix in="SourceAlpha" type="matrix" values="0 0 0 0 0 0 0 0 0 0 0 0 0 0 0 0 0 0 127 0" result="hardAlpha"/>
<feOffset dy="10"/>
<feGaussianBlur stdDeviation="15"/>
<feColorMatrix type="matrix" values="0 0 0 0 0 0 0 0 0 0 0 0 0 0 0 0 0 0 0.0212013 0"/>
<feBlend mode="normal" in2="BackgroundImageFix" result="effect1_dropShadow_0_22"/>
<feBlend mode="normal" in="SourceGraphic" in2="effect1_dropShadow_0_22" result="shape"/>
</filter>
</defs>
</svg>
